<svg viewBox="0 0 330 200" xmlns="http://www.w3.org/2000/svg"><g><g><g><g><g><line x1="51.5625" y1="177" x2="46.5625" y2="177" style="visibility: inherit;" fill="rgb(0, 0, 0)" stroke="rgb(204, 204, 204)" stroke-width="1px"></line><line x1="51.5625" y1="151.71428571428572" x2="46.5625" y2="151.71428571428572" style="visibility: inherit;" fill="rgb(0, 0, 0)" stroke="rgb(204, 204, 204)" stroke-width="1px"></line><line x1="51.5625" y1="126.42857142857143" x2="46.5625" y2="126.42857142857143" style="visibility: inherit;" fill="rgb(0, 0, 0)" stroke="rgb(204, 204, 204)" stroke-width="1px"></line><line x1="51.5625" y1="101.14285714285714" x2="46.5625" y2="101.14285714285714" style="visibility: inherit;" fill="rgb(0, 0, 0)" stroke="rgb(204, 204, 204)" stroke-width="1px"></line><line x1="51.5625" y1="75.85714285714286" x2="46.5625" y2="75.85714285714286" style="visibility: inherit;" fill="rgb(0, 0, 0)" stroke="rgb(204, 204, 204)" stroke-width="1px"></line><line x1="51.5625" y1="50.57142857142857" x2="46.5625" y2="50.57142857142857" style="visibility: inherit;" fill="rgb(0, 0, 0)" stroke="rgb(204, 204, 204)" stroke-width="1px"></line><line x1="51.5625" y1="25.285714285714295" x2="46.5625" y2="25.285714285714295" style="visibility: inherit;" fill="rgb(0, 0, 0)" stroke="rgb(204, 204, 204)" stroke-width="1px"></line><line x1="51.5625" y1="0" x2="46.5625" y2="0" style="visibility: inherit;" fill="rgb(0, 0, 0)" stroke="rgb(204, 204, 204)" stroke-width="1px"></line></g><g transform="translate(41.5625, 0)"><text x="0" y="177" dx="0em" dy="0.3em" style="text-anchor: end; visibility: hidden; font-family: Roboto, sans-serif; font-size: 12px; font-weight: 200;" fill="rgb(33, 33, 33)" stroke="none" stroke-width="1px">-0.5</text><text x="0" y="151.71428571428572" dx="0em" dy="0.3em" style="text-anchor: end; visibility: inherit; font-family: Roboto, sans-serif; font-size: 12px; font-weight: 200;" fill="rgb(33, 33, 33)" stroke="none" stroke-width="1px">0</text><text x="0" y="126.42857142857143" dx="0em" dy="0.3em" style="text-anchor: end; visibility: inherit; font-family: Roboto, sans-serif; font-size: 12px; font-weight: 200;" fill="rgb(33, 33, 33)" stroke="none" stroke-width="1px">0.5</text><text x="0" y="101.14285714285714" dx="0em" dy="0.3em" style="text-anchor: end; visibility: inherit; font-family: Roboto, sans-serif; font-size: 12px; font-weight: 200;" fill="rgb(33, 33, 33)" stroke="none" stroke-width="1px">1</text><text x="0" y="75.85714285714286" dx="0em" dy="0.3em" style="text-anchor: end; visibility: inherit; font-family: Roboto, sans-serif; font-size: 12px; font-weight: 200;" fill="rgb(33, 33, 33)" stroke="none" stroke-width="1px">1.5</text><text x="0" y="50.57142857142857" dx="0em" dy="0.3em" style="text-anchor: end; visibility: inherit; font-family: Roboto, sans-serif; font-size: 12px; font-weight: 200;" fill="rgb(33, 33, 33)" stroke="none" stroke-width="1px">2</text><text x="0" y="25.285714285714295" dx="0em" dy="0.3em" style="text-anchor: end; visibility: inherit; font-family: Roboto, sans-serif; font-size: 12px; font-weight: 200;" fill="rgb(33, 33, 33)" stroke="none" stroke-width="1px">2.5</text><text x="0" y="0" dx="0em" dy="0.3em" style="text-anchor: end; visibility: hidden; font-family: Roboto, sans-serif; font-size: 12px; font-weight: 200;" fill="rgb(33, 33, 33)" stroke="none" stroke-width="1px">3</text></g><line x1="51.5625" y1="0" x2="51.5625" y2="177" fill="rgb(0, 0, 0)" stroke="rgb(204, 204, 204)" stroke-width="1px"></line></g></g><g transform="translate(51, 0)" clip-path="url(#clip_0)"><clipPath id="clip_0"><rect width="278" height="177"></rect></clipPath><g><g><g><line x1="0" y1="0" x2="0" y2="177" fill="rgb(0, 0, 0)" stroke="rgb(66, 66, 66)" stroke-width="1px" opacity="0.25"></line><line x1="34.8046875" y1="0" x2="34.8046875" y2="177" fill="rgb(0, 0, 0)" stroke="rgb(66, 66, 66)" stroke-width="1px" opacity="0.25"></line><line x1="69.609375" y1="0" x2="69.609375" y2="177" fill="rgb(0, 0, 0)" stroke="rgb(66, 66, 66)" stroke-width="1px" opacity="0.25"></line><line x1="104.4140625" y1="0" x2="104.4140625" y2="177" fill="rgb(0, 0, 0)" stroke="rgb(66, 66, 66)" stroke-width="1px" opacity="0.25"></line><line x1="139.21875" y1="0" x2="139.21875" y2="177" fill="rgb(0, 0, 0)" stroke="rgb(66, 66, 66)" stroke-width="1px" opacity="0.25"></line><line x1="174.0234375" y1="0" x2="174.0234375" y2="177" fill="rgb(0, 0, 0)" stroke="rgb(66, 66, 66)" stroke-width="1px" opacity="0.25"></line><line x1="208.828125" y1="0" x2="208.828125" y2="177" fill="rgb(0, 0, 0)" stroke="rgb(66, 66, 66)" stroke-width="1px" opacity="0.25"></line><line x1="243.6328125" y1="0" x2="243.6328125" y2="177" fill="rgb(0, 0, 0)" stroke="rgb(66, 66, 66)" stroke-width="1px" opacity="0.25"></line><line x1="278.4375" y1="0" x2="278.4375" y2="177" fill="rgb(0, 0, 0)" stroke="rgb(66, 66, 66)" stroke-width="1px" opacity="0.25"></line></g><g><line x1="0" y1="177" x2="278.4375" y2="177" fill="rgb(0, 0, 0)" stroke="rgb(66, 66, 66)" stroke-width="1px" opacity="0.25"></line><line x1="0" y1="151.71428571428572" x2="278.4375" y2="151.71428571428572" fill="rgb(0, 0, 0)" stroke="rgb(66, 66, 66)" stroke-width="1px" opacity="0.25"></line><line x1="0" y1="126.42857142857143" x2="278.4375" y2="126.42857142857143" fill="rgb(0, 0, 0)" stroke="rgb(66, 66, 66)" stroke-width="1px" opacity="0.25"></line><line x1="0" y1="101.14285714285714" x2="278.4375" y2="101.14285714285714" fill="rgb(0, 0, 0)" stroke="rgb(66, 66, 66)" stroke-width="1px" opacity="0.25"></line><line x1="0" y1="75.85714285714286" x2="278.4375" y2="75.85714285714286" fill="rgb(0, 0, 0)" stroke="rgb(66, 66, 66)" stroke-width="1px" opacity="0.25"></line><line x1="0" y1="50.57142857142857" x2="278.4375" y2="50.57142857142857" fill="rgb(0, 0, 0)" stroke="rgb(66, 66, 66)" stroke-width="1px" opacity="0.25"></line><line x1="0" y1="25.285714285714295" x2="278.4375" y2="25.285714285714295" fill="rgb(0, 0, 0)" stroke="rgb(66, 66, 66)" stroke-width="1px" opacity="0.25"></line><line x1="0" y1="0" x2="278.4375" y2="0" fill="rgb(0, 0, 0)" stroke="rgb(66, 66, 66)" stroke-width="1px" opacity="0.25"></line></g></g></g><g><g><line x1="0" y1="151.71428571428572" x2="278.4375" y2="151.71428571428572" fill="rgb(0, 0, 0)" stroke="rgb(153, 153, 153)" stroke-width="1.5px"></line></g></g><g><g><line x1="34.8046875" y1="0" x2="34.8046875" y2="177" fill="rgb(0, 0, 0)" stroke="rgb(153, 153, 153)" stroke-width="1.5px"></line></g></g><g><g><g><g><g><path stroke="rgb(0, 119, 187)" stroke-width="2px" d="M35.50078125,151.6361388980544L36.196875,151.6731848327077L35.50078125,14.065964698791504L36.196875,36.29835789544242L36.89296875,42.10282332556588L37.589062500000004,44.14967230388096L38.28515625,49.15119062151227L38.98125,49.06392083849225L39.67734375,52.841112102781025L40.373437499999994,55.27544832229614L41.06953125,55.85317959104266L41.765625,53.79195243971688L42.461718749999996,57.46735106195722L43.1578125,64.20375721795219L43.85390625,67.68020050866264L44.550000000000004,62.35730440276009L45.24609375,65.5099162714822L45.9421875,64.79992992537362L46.638281250000006,61.54687581743512L47.334375,71.90209027699062L48.03046875,65.89650525365558L48.7265625,68.60805385453361L49.422656249999996,70.60021151815143L50.11875,70.74436099188668L50.81484375,74.85216583524432L51.5109375,71.14416463034493L52.20703125,75.41937119620187L52.903125,73.79178612572807L53.59921875,73.65504578181675L54.2953125,75.28847857883999L54.991406250000004,77.88119173049927L55.6875,76.67863992282322L56.38359375,78.97014692851475L57.0796875,77.55620884895325L57.775781249999994,77.68097039631435L58.471875,82.45768281391689L59.16796875,82.14784373555865L59.864062499999996,83.59343791007996L60.56015625,82.90848224503654L61.25625,83.69682209832328L61.952343750000004,86.62709375790187L62.6484375,83.47351128714425L63.34453125,88.04201449666705L64.040625,85.65255505698067L64.73671875000001,81.96336906296867L65.4328125,85.27596146719796L66.12890625,87.80450636999947L66.825,85.68770170211792L67.52109374999999,87.28839325904846L68.2171875,85.17503091267177L68.91328125,82.39089815957206L69.609375,90.98686930111477L70.30546875,89.88028652327401L71.0015625,92.78570835930961L71.69765625000001,90.60620038849967L72.39375,92.59908148220607L73.08984375,88.46755416052682L73.7859375,93.09468535014561L74.48203125,92.80999752453396L75.17812500000001,96.23820611408779L75.87421875000001,93.00225509916032L76.5703125,94.07065885407584L77.26640625,95.43765837805611L77.9625,98.31877296311515L78.65859375,91.20413344247001L79.3546875,92.96579422269548L80.05078125,94.25541687011719L80.74687499999999,94.95953740392412L81.44296874999999,94.77448398726327L82.1390625,96.69851262228829L82.83515625,94.50109372820174L83.53125,101.2418886934008L84.22734375,91.96215554646083L84.92343749999999,95.68871273313249L85.61953125,94.84633265222823L86.315625,99.6655707018716L87.01171875,96.821302822658L87.7078125,99.51903993742806L88.40390625,96.66087617192949L89.10000000000001,94.66410061291286L89.79609375,97.14171603747776L90.4921875,98.1710786819458L91.18828125,101.90227486406053L91.884375,103.18903996263231L92.58046875000001,102.49554782254356L93.27656250000001,100.36835289001465L93.97265625,100.35204557010105L94.66875,99.74736050197056L95.36484375,98.18157444681441L96.0609375,99.31351947784424L96.75703125,101.31682399341038L97.453125,102.44334028448378L98.14921874999999,101.73267572266715L98.84531249999999,98.07337944848197L99.54140625,99.29741712978908L100.2375,102.5449309689658L100.93359375,106.43172792025975L101.6296875,105.71765117985862L102.32578124999999,104.20570339475358L103.021875,101.28900509221214L103.71796875,96.5626403944833L104.4140625,104.71295147282737L105.11015625,105.0186458996364L105.80625,105.33596645082747L106.50234375000001,101.84213672365462L107.1984375,101.27570000716618L107.89453125,109.03427972112382L108.590625,106.18265696934291L109.28671875,102.38615916456496L109.98281250000001,102.32079725606101L110.67890625000001,103.06243668283736L111.375,105.60584204537528L112.07109375,107.2283570766449L112.7671875,105.34023468835014L113.46328125,106.83778018610818L114.159375,102.78687010492598L114.85546875,106.7388812644141L115.55156249999999,107.41048060144698L116.24765624999999,103.48038635935103L116.94375,104.67869404384068L117.63984375,108.66365141527993L118.3359375,101.45949646404812L119.03203125,107.05706691741943L119.72812499999999,104.14289157731193L120.42421875,104.48661129815238L121.1203125,104.45599814823696L121.81640625,111.1445403609957L122.5125,106.85325857571193L123.20859375,107.08153392587388L123.90468750000001,108.69860213143485L124.60078125,107.21312887328011L125.296875,111.02667551381248L125.99296875,105.71904378277915L126.6890625,105.42203353132521L127.38515625000001,107.94467042173659L128.08125,110.18839185578483L128.77734375,104.14487799576351L129.47343750000002,109.95829587323325L130.16953125,109.43096959590912L130.865625,106.9698634488242L131.56171874999998,108.40444038595473L132.2578125,110.12486866542271L132.95390625,111.48382002966744L133.65,110.65260790075575L134.34609375,110.12350921971458L135.04218749999998,107.3222462449755L135.73828125,110.58845773765019L136.434375,107.0054200376783L137.13046875,113.16458324023655L137.8265625,114.58338337285178L138.52265625,111.35955584049225L139.21875,107.26593625545502L139.91484375,113.24588171073368L140.6109375,114.11110409668514L141.30703125,113.97073153087071L142.003125,109.72745536054884L142.69921875,108.24674769810268L143.39531250000002,108.90111131327492L144.09140624999998,116.07922278131758L144.7875,109.56934670039585L145.48359374999998,115.12732141358512L146.1796875,116.39218768051693L146.87578125,117.25497451850346L147.571875,113.364090187209L148.26796875,115.55323484965733L148.9640625,110.02528248514449L149.66015625,113.94910097122192L150.35625000000002,114.37475819247109L151.05234375,114.2994762488774L151.74843750000002,110.03696588107518L152.44453124999998,113.24328339099884L153.140625,115.31816528524672L153.83671875,115.86955164160048L154.5328125,116.9074206181935L155.22890625,114.05713922636849L155.925,113.98128155299595L156.62109375,111.05319224085127L157.3171875,110.50230927126748L158.01328125,118.50939324923924L158.709375,114.10693834509169L159.40546875,115.9367824111666L160.1015625,116.6971858058657L160.79765625000002,115.65058743953705L161.49374999999998,112.01663533278874L162.18984375,112.88513123989105L162.88593749999998,112.1495053257261L163.58203125,115.26636769090379L164.278125,119.79508525984627L164.97421875,115.30701843329838L165.6703125,117.08863985538483L166.36640625,117.84562202862331L167.0625,116.53943584646498L167.75859375000002,115.79022753238678L168.4546875,118.16983927999223L169.15078125000002,115.37848729746682L169.84687499999998,113.65124973229L170.54296875,114.47267144066947L171.2390625,117.8530432156154L171.93515625,119.19001134804317L172.63125,117.01385225568498L173.32734375,116.4942968232291L174.0234375,115.95545896462032L174.71953125,116.52956705433982L175.415625,115.8845145872661L176.11171875,112.63039341994694L176.8078125,115.51944765022823L177.50390625,114.0306134564536L178.20000000000002,114.99562699454171L178.89609374999998,112.5412005186081L179.5921875,119.70801743439266L180.28828124999998,117.86349678039551L180.984375,113.5852518081665L181.68046875,113.36707132203239L182.3765625,116.72725638321468L183.07265625,117.19352214676994L183.76875,111.81960613386971L184.46484375,116.76900131361825L185.16093750000002,120.15423815590995L185.85703125,116.30107166085924L186.55312500000002,117.7357782125473L187.24921874999998,119.25054436070579L187.9453125,118.4669279030391L188.64140625,116.94241654872894L189.3375,119.88554717813219L190.03359375,119.42993693692344L190.7296875,118.60702616827828L191.42578125,115.71877373967851L192.121875,116.5441712992532L192.81796875,115.0607990026474L193.5140625,115.96993058068412L194.21015625,115.36166453361511L194.90625,123.12049443381173L195.60234375000002,120.09902536869049L196.29843749999998,121.2765314238412L196.99453125,116.55131215708596L197.69062499999998,116.2352033512933L198.38671875,119.43718630926949L199.0828125,121.04483485221863L199.77890625,119.18016365596226L200.475,117.58246830531529L201.17109375,119.74541876997267L201.8671875,120.0968189069203L202.56328125000002,124.27014541625977L203.259375,119.60087140968868L203.95546875000002,119.66382489885603L204.65156249999998,123.14693881784166L205.34765625,120.85798793179649L206.04375,122.28181288923537L206.73984375,119.30441578796932L207.4359375,118.40859532356262L208.13203125,117.59263551235199L208.828125,121.2602482182639L209.52421875,120.3164130960192L210.2203125,123.89644253253937L210.91640625,121.44246217182705L211.6125,121.18204241139549L212.30859375,120.73592116151536L213.00468750000002,118.71425659315926L213.70078124999998,121.32774725982121L214.396875,122.14424964359829L215.09296874999998,119.31950533390045L215.7890625,118.87441798618862L216.48515625,121.04034958566939L217.18125,120.7763307605471L217.87734375,120.59276037556785L218.5734375,119.3285301242556L219.26953125,124.70961713790894L219.96562500000002,116.17986697810036L220.66171875,125.2116504907608L221.35781250000002,123.7149429661887L222.05390624999998,120.0786336830684L222.75,123.8034666946956L223.44609375,116.32445352418083L224.1421875,121.41561688695634L224.83828125,119.68912083762032L225.534375,123.79063485349928L226.23046875,120.57930759021214L226.9265625,121.15413911002022L227.62265625,119.50885110242027L228.31875,117.8359340940203L229.01484375,121.98700909955161L229.7109375,125.2431377853666L230.40703125000002,123.30066469737461L231.10312499999998,124.48252941880907L231.79921875,120.01554455075944L232.49531249999998,123.54846964563643L233.19140625,119.76296496391296L233.8875,122.42398800168718L234.58359375,125.53544574124473L235.2796875,124.19571953160423L235.97578125,123.06754839420319L236.671875,118.50739477361952L237.36796875000002,124.86493757792881L238.0640625,121.64873017583574L238.76015625000002,120.85121783188411L239.45624999999998,121.81819065979549L240.15234375,121.95730928012303L240.8484375,119.92495904650008L241.54453125,122.32432043552399L242.240625,123.27088047776903L242.93671875,125.96369223935264L243.6328125,122.81120998518807" style="fill: none;" fill="none"></path></g></g></g></g></g></g><g transform="translate(51, 177)" clip-path="url(#clip_1)"><clipPath id="clip_1"><rect width="278" height="23"></rect></clipPath><g><g><line x1="0" y1="0" x2="0" y2="5" style="visibility: inherit;" fill="rgb(0, 0, 0)" stroke="rgb(204, 204, 204)" stroke-width="1px"></line><line x1="34.8046875" y1="0" x2="34.8046875" y2="5" style="visibility: inherit;" fill="rgb(0, 0, 0)" stroke="rgb(204, 204, 204)" stroke-width="1px"></line><line x1="69.609375" y1="0" x2="69.609375" y2="5" style="visibility: inherit;" fill="rgb(0, 0, 0)" stroke="rgb(204, 204, 204)" stroke-width="1px"></line><line x1="104.4140625" y1="0" x2="104.4140625" y2="5" style="visibility: inherit;" fill="rgb(0, 0, 0)" stroke="rgb(204, 204, 204)" stroke-width="1px"></line><line x1="139.21875" y1="0" x2="139.21875" y2="5" style="visibility: inherit;" fill="rgb(0, 0, 0)" stroke="rgb(204, 204, 204)" stroke-width="1px"></line><line x1="174.0234375" y1="0" x2="174.0234375" y2="5" style="visibility: inherit;" fill="rgb(0, 0, 0)" stroke="rgb(204, 204, 204)" stroke-width="1px"></line><line x1="208.828125" y1="0" x2="208.828125" y2="5" style="visibility: inherit;" fill="rgb(0, 0, 0)" stroke="rgb(204, 204, 204)" stroke-width="1px"></line><line x1="243.6328125" y1="0" x2="243.6328125" y2="5" style="visibility: inherit;" fill="rgb(0, 0, 0)" stroke="rgb(204, 204, 204)" stroke-width="1px"></line><line x1="278.4375" y1="0" x2="278.4375" y2="5" style="visibility: inherit;" fill="rgb(0, 0, 0)" stroke="rgb(204, 204, 204)" stroke-width="1px"></line></g><g transform="translate(0, 8)"><text x="0" y="0" dx="0em" dy="0.95em" style="text-anchor: middle; visibility: hidden; font-family: Roboto, sans-serif; font-size: 12px; font-weight: 200;" fill="rgb(33, 33, 33)" stroke="none" stroke-width="1px">-500</text><text x="34.8046875" y="0" dx="0em" dy="0.95em" style="text-anchor: middle; visibility: inherit; font-family: Roboto, sans-serif; font-size: 12px; font-weight: 200;" fill="rgb(33, 33, 33)" stroke="none" stroke-width="1px">0</text><text x="69.609375" y="0" dx="0em" dy="0.95em" style="text-anchor: middle; visibility: inherit; font-family: Roboto, sans-serif; font-size: 12px; font-weight: 200;" fill="rgb(33, 33, 33)" stroke="none" stroke-width="1px">500</text><text x="104.4140625" y="0" dx="0em" dy="0.95em" style="text-anchor: middle; visibility: inherit; font-family: Roboto, sans-serif; font-size: 12px; font-weight: 200;" fill="rgb(33, 33, 33)" stroke="none" stroke-width="1px">1k</text><text x="139.21875" y="0" dx="0em" dy="0.95em" style="text-anchor: middle; visibility: inherit; font-family: Roboto, sans-serif; font-size: 12px; font-weight: 200;" fill="rgb(33, 33, 33)" stroke="none" stroke-width="1px">1.5k</text><text x="174.0234375" y="0" dx="0em" dy="0.95em" style="text-anchor: middle; visibility: inherit; font-family: Roboto, sans-serif; font-size: 12px; font-weight: 200;" fill="rgb(33, 33, 33)" stroke="none" stroke-width="1px">2k</text><text x="208.828125" y="0" dx="0em" dy="0.95em" style="text-anchor: middle; visibility: inherit; font-family: Roboto, sans-serif; font-size: 12px; font-weight: 200;" fill="rgb(33, 33, 33)" stroke="none" stroke-width="1px">2.5k</text><text x="243.6328125" y="0" dx="0em" dy="0.95em" style="text-anchor: middle; visibility: inherit; font-family: Roboto, sans-serif; font-size: 12px; font-weight: 200;" fill="rgb(33, 33, 33)" stroke="none" stroke-width="1px">3k</text><text x="278.4375" y="0" dx="0em" dy="0.95em" style="text-anchor: middle; visibility: hidden; font-family: Roboto, sans-serif; font-size: 12px; font-weight: 200;" fill="rgb(33, 33, 33)" stroke="none" stroke-width="1px">3.5k</text></g><line x1="0" y1="0" x2="278.4375" y2="0" fill="rgb(0, 0, 0)" stroke="rgb(204, 204, 204)" stroke-width="1px"></line></g></g></g></g></svg>