<svg viewBox="0 0 330 200" xmlns="http://www.w3.org/2000/svg"><g><g><g><g><g><line x1="41.171875" y1="177" x2="36.171875" y2="177" style="visibility: inherit;" fill="rgb(0, 0, 0)" stroke="rgb(204, 204, 204)" stroke-width="1px"></line><line x1="41.171875" y1="159.3" x2="36.171875" y2="159.3" style="visibility: inherit;" fill="rgb(0, 0, 0)" stroke="rgb(204, 204, 204)" stroke-width="1px"></line><line x1="41.171875" y1="141.6" x2="36.171875" y2="141.6" style="visibility: inherit;" fill="rgb(0, 0, 0)" stroke="rgb(204, 204, 204)" stroke-width="1px"></line><line x1="41.171875" y1="123.89999999999999" x2="36.171875" y2="123.89999999999999" style="visibility: inherit;" fill="rgb(0, 0, 0)" stroke="rgb(204, 204, 204)" stroke-width="1px"></line><line x1="41.171875" y1="106.2" x2="36.171875" y2="106.2" style="visibility: inherit;" fill="rgb(0, 0, 0)" stroke="rgb(204, 204, 204)" stroke-width="1px"></line><line x1="41.171875" y1="88.5" x2="36.171875" y2="88.5" style="visibility: inherit;" fill="rgb(0, 0, 0)" stroke="rgb(204, 204, 204)" stroke-width="1px"></line><line x1="41.171875" y1="70.8" x2="36.171875" y2="70.8" style="visibility: inherit;" fill="rgb(0, 0, 0)" stroke="rgb(204, 204, 204)" stroke-width="1px"></line><line x1="41.171875" y1="53.10000000000001" x2="36.171875" y2="53.10000000000001" style="visibility: inherit;" fill="rgb(0, 0, 0)" stroke="rgb(204, 204, 204)" stroke-width="1px"></line><line x1="41.171875" y1="35.39999999999999" x2="36.171875" y2="35.39999999999999" style="visibility: inherit;" fill="rgb(0, 0, 0)" stroke="rgb(204, 204, 204)" stroke-width="1px"></line><line x1="41.171875" y1="17.699999999999996" x2="36.171875" y2="17.699999999999996" style="visibility: inherit;" fill="rgb(0, 0, 0)" stroke="rgb(204, 204, 204)" stroke-width="1px"></line><line x1="41.171875" y1="0" x2="36.171875" y2="0" style="visibility: inherit;" fill="rgb(0, 0, 0)" stroke="rgb(204, 204, 204)" stroke-width="1px"></line></g><g transform="translate(31.171875, 0)"><text x="0" y="177" dx="0em" dy="0.3em" style="text-anchor: end; visibility: hidden; font-family: Roboto, sans-serif; font-size: 12px; font-weight: 200;" fill="rgb(33, 33, 33)" stroke="none" stroke-width="1px">0.5</text><text x="0" y="159.3" dx="0em" dy="0.3em" style="text-anchor: end; visibility: inherit; font-family: Roboto, sans-serif; font-size: 12px; font-weight: 200;" fill="rgb(33, 33, 33)" stroke="none" stroke-width="1px">1</text><text x="0" y="141.6" dx="0em" dy="0.3em" style="text-anchor: end; visibility: hidden; font-family: Roboto, sans-serif; font-size: 12px; font-weight: 200;" fill="rgb(33, 33, 33)" stroke="none" stroke-width="1px">1.5</text><text x="0" y="123.89999999999999" dx="0em" dy="0.3em" style="text-anchor: end; visibility: inherit; font-family: Roboto, sans-serif; font-size: 12px; font-weight: 200;" fill="rgb(33, 33, 33)" stroke="none" stroke-width="1px">2</text><text x="0" y="106.2" dx="0em" dy="0.3em" style="text-anchor: end; visibility: hidden; font-family: Roboto, sans-serif; font-size: 12px; font-weight: 200;" fill="rgb(33, 33, 33)" stroke="none" stroke-width="1px">2.5</text><text x="0" y="88.5" dx="0em" dy="0.3em" style="text-anchor: end; visibility: inherit; font-family: Roboto, sans-serif; font-size: 12px; font-weight: 200;" fill="rgb(33, 33, 33)" stroke="none" stroke-width="1px">3</text><text x="0" y="70.8" dx="0em" dy="0.3em" style="text-anchor: end; visibility: hidden; font-family: Roboto, sans-serif; font-size: 12px; font-weight: 200;" fill="rgb(33, 33, 33)" stroke="none" stroke-width="1px">3.5</text><text x="0" y="53.10000000000001" dx="0em" dy="0.3em" style="text-anchor: end; visibility: inherit; font-family: Roboto, sans-serif; font-size: 12px; font-weight: 200;" fill="rgb(33, 33, 33)" stroke="none" stroke-width="1px">4</text><text x="0" y="35.39999999999999" dx="0em" dy="0.3em" style="text-anchor: end; visibility: hidden; font-family: Roboto, sans-serif; font-size: 12px; font-weight: 200;" fill="rgb(33, 33, 33)" stroke="none" stroke-width="1px">4.5</text><text x="0" y="17.699999999999996" dx="0em" dy="0.3em" style="text-anchor: end; visibility: inherit; font-family: Roboto, sans-serif; font-size: 12px; font-weight: 200;" fill="rgb(33, 33, 33)" stroke="none" stroke-width="1px">5</text><text x="0" y="0" dx="0em" dy="0.3em" style="text-anchor: end; visibility: hidden; font-family: Roboto, sans-serif; font-size: 12px; font-weight: 200;" fill="rgb(33, 33, 33)" stroke="none" stroke-width="1px">5.5</text></g><line x1="41.171875" y1="0" x2="41.171875" y2="177" fill="rgb(0, 0, 0)" stroke="rgb(204, 204, 204)" stroke-width="1px"></line></g></g><g transform="translate(41, 0)" clip-path="url(#clip_0)"><clipPath id="clip_0"><rect width="288" height="177"></rect></clipPath><g><g><g><line x1="0" y1="0" x2="0" y2="177" fill="rgb(0, 0, 0)" stroke="rgb(66, 66, 66)" stroke-width="1px" opacity="0.25"></line><line x1="26.257102272727273" y1="0" x2="26.257102272727273" y2="177" fill="rgb(0, 0, 0)" stroke="rgb(66, 66, 66)" stroke-width="1px" opacity="0.25"></line><line x1="52.51420454545455" y1="0" x2="52.51420454545455" y2="177" fill="rgb(0, 0, 0)" stroke="rgb(66, 66, 66)" stroke-width="1px" opacity="0.25"></line><line x1="78.77130681818181" y1="0" x2="78.77130681818181" y2="177" fill="rgb(0, 0, 0)" stroke="rgb(66, 66, 66)" stroke-width="1px" opacity="0.25"></line><line x1="105.0284090909091" y1="0" x2="105.0284090909091" y2="177" fill="rgb(0, 0, 0)" stroke="rgb(66, 66, 66)" stroke-width="1px" opacity="0.25"></line><line x1="131.28551136363635" y1="0" x2="131.28551136363635" y2="177" fill="rgb(0, 0, 0)" stroke="rgb(66, 66, 66)" stroke-width="1px" opacity="0.25"></line><line x1="157.54261363636363" y1="0" x2="157.54261363636363" y2="177" fill="rgb(0, 0, 0)" stroke="rgb(66, 66, 66)" stroke-width="1px" opacity="0.25"></line><line x1="183.7997159090909" y1="0" x2="183.7997159090909" y2="177" fill="rgb(0, 0, 0)" stroke="rgb(66, 66, 66)" stroke-width="1px" opacity="0.25"></line><line x1="210.0568181818182" y1="0" x2="210.0568181818182" y2="177" fill="rgb(0, 0, 0)" stroke="rgb(66, 66, 66)" stroke-width="1px" opacity="0.25"></line><line x1="236.31392045454547" y1="0" x2="236.31392045454547" y2="177" fill="rgb(0, 0, 0)" stroke="rgb(66, 66, 66)" stroke-width="1px" opacity="0.25"></line><line x1="262.5710227272727" y1="0" x2="262.5710227272727" y2="177" fill="rgb(0, 0, 0)" stroke="rgb(66, 66, 66)" stroke-width="1px" opacity="0.25"></line><line x1="288.828125" y1="0" x2="288.828125" y2="177" fill="rgb(0, 0, 0)" stroke="rgb(66, 66, 66)" stroke-width="1px" opacity="0.25"></line></g><g><line x1="0" y1="177" x2="288.828125" y2="177" fill="rgb(0, 0, 0)" stroke="rgb(66, 66, 66)" stroke-width="1px" opacity="0.25"></line><line x1="0" y1="159.3" x2="288.828125" y2="159.3" fill="rgb(0, 0, 0)" stroke="rgb(66, 66, 66)" stroke-width="1px" opacity="0.25"></line><line x1="0" y1="141.6" x2="288.828125" y2="141.6" fill="rgb(0, 0, 0)" stroke="rgb(66, 66, 66)" stroke-width="1px" opacity="0.25"></line><line x1="0" y1="123.89999999999999" x2="288.828125" y2="123.89999999999999" fill="rgb(0, 0, 0)" stroke="rgb(66, 66, 66)" stroke-width="1px" opacity="0.25"></line><line x1="0" y1="106.2" x2="288.828125" y2="106.2" fill="rgb(0, 0, 0)" stroke="rgb(66, 66, 66)" stroke-width="1px" opacity="0.25"></line><line x1="0" y1="88.5" x2="288.828125" y2="88.5" fill="rgb(0, 0, 0)" stroke="rgb(66, 66, 66)" stroke-width="1px" opacity="0.25"></line><line x1="0" y1="70.8" x2="288.828125" y2="70.8" fill="rgb(0, 0, 0)" stroke="rgb(66, 66, 66)" stroke-width="1px" opacity="0.25"></line><line x1="0" y1="53.10000000000001" x2="288.828125" y2="53.10000000000001" fill="rgb(0, 0, 0)" stroke="rgb(66, 66, 66)" stroke-width="1px" opacity="0.25"></line><line x1="0" y1="35.39999999999999" x2="288.828125" y2="35.39999999999999" fill="rgb(0, 0, 0)" stroke="rgb(66, 66, 66)" stroke-width="1px" opacity="0.25"></line><line x1="0" y1="17.699999999999996" x2="288.828125" y2="17.699999999999996" fill="rgb(0, 0, 0)" stroke="rgb(66, 66, 66)" stroke-width="1px" opacity="0.25"></line><line x1="0" y1="0" x2="288.828125" y2="0" fill="rgb(0, 0, 0)" stroke="rgb(66, 66, 66)" stroke-width="1px" opacity="0.25"></line></g></g></g><g><g><line x1="0" y1="194.70000000000002" x2="288.828125" y2="194.70000000000002" fill="rgb(0, 0, 0)" stroke="rgb(153, 153, 153)" stroke-width="1.5px"></line></g></g><g><g><line x1="26.257102272727273" y1="0" x2="26.257102272727273" y2="177" fill="rgb(0, 0, 0)" stroke="rgb(153, 153, 153)" stroke-width="1.5px"></line></g></g><g><g><g><g><g><path stroke="rgb(255, 112, 67)" stroke-width="2px" d="M26.519673295454545,117.07420320510865L26.782244318181817,15.837271213531494L27.307386363636365,92.99620842933655L27.569957386363637,57.31588168144226L27.83252840909091,71.0547872543335L28.09509943181818,114.99741868972778L28.357670454545453,87.88475646972655L28.620241477272728,107.64551339149476L28.8828125,107.48614897727965L29.145383522727272,96.19689102172852L29.407954545454547,102.77606205940246L29.670525568181816,102.13666319847107L29.93309659090909,109.80208983421325L30.195667613636363,117.7719732284546L30.458238636363635,94.97524065971375L30.72080965909091,117.46719574928284L30.98338068181818,111.59192218780517L31.245951704545455,110.66115703582763L31.508522727272727,110.56671323776244L31.77109375,114.1474329471588L32.03366477272728,110.11837949752807L32.29623579545454,120.81302132606505L32.55880681818182,111.78039622306824L32.821377840909086,106.68543605804443L33.083948863636365,111.19353647232056L33.34651988636364,116.28566079139709L33.60909090909091,123.69654493331909L34.396803977272725,119.1681125164032L34.659375,111.97940340042113L34.921946022727276,116.36072630882263L35.18451704545454,116.53217682838441L35.44708806818182,123.36892876625062L35.972230113636364,111.05091705322265L36.234801136363636,104.29758625030517L36.497372159090915,123.77651410102844L36.75994318181818,109.66642498970032L37.02251420454545,119.86640582084657L37.54765625,111.08548736572266L37.810227272727275,123.19244799613953L38.07279829545454,119.1298707962036L38.33536931818182,108.88686275482178L38.59794034090909,118.61329951286315L38.86051136363636,124.74381186962127L39.38565340909091,119.27115669250487L39.64822443181818,114.65594401359557L40.17336647727273,121.79331250190735L40.4359375,112.71405630111694L40.69850852272727,123.11773695945739L40.961079545454545,118.78289322853088L41.22365056818182,115.94305515289307L41.486221590909096,116.82348403930665L42.01136363636363,123.30975580215454L42.27393465909091,120.1838180065155L42.536505681818184,114.51960396766663L42.799076704545456,126.9873120546341L43.06164772727272,113.8789897441864L43.32421875,121.78552236557006L43.58678977272727,113.71862940788269L43.849360795454544,119.21377301216125L44.11193181818182,118.7531168460846L44.37450284090909,112.83088302612305L44.63707386363636,119.95350680351258L45.16221590909091,108.47839121818542L45.42478693181818,120.6850959777832L45.687357954545455,125.66452074050903L45.94992897727273,122.39859681129455L46.2125,129.86531167030336L46.47507102272728,108.09572925567626L46.73764204545454,117.86784338951111L47.000213068181814,128.9212450504303L47.26278409090909,116.48568921089172L47.78792613636364,123.93820796012879L48.05049715909091,111.57638411521911L48.57563920454545,124.52824537754059L48.83821022727273,122.59754490852356L49.100781250000004,118.81557297706604L49.36335227272727,125.3772309780121L49.62592329545454,123.44732809066772L49.88849431818182,124.48260598182678L50.41363636363637,124.01030681133271L50.676207386363636,121.63857321739196L50.93877840909091,120.29320907592773L51.20134943181818,123.04540600776672L51.46392045454546,124.90259392261505L51.726491477272724,121.27366905212402L51.989062499999996,122.29330759048462L52.51420454545455,132.5600489616394L52.77677556818182,117.43386611938477L53.03934659090909,121.76223635673523L53.30191761363636,118.95003089904786L53.564488636363635,121.32946600914L53.827059659090914,128.89611489772795L54.089630681818186,121.41346106529237L54.35220170454545,120.91469821929932L54.61477272727273,126.59818081855774L54.87734375,125.29953639507293L55.13991477272727,120.93941059112548L55.40248579545454,119.86080164909363L55.66505681818182,120.72205481529237L55.92762784090909,126.73422124385833L56.19019886363636,125.59934692382812L56.45276988636364,118.53180270195007L56.715340909090905,127.74317049980164L56.97791193181818,126.073650598526L57.240482954545456,129.82134761810303L57.50305397727273,124.357887840271L57.765625,124.80030090808869L58.02819602272727,122.04840359687806L58.290767045454544,125.3538732290268L58.553338068181816,129.35303635597228L58.815909090909095,122.35885276794433L59.07848011363637,125.2398190498352L59.34105113636363,121.3810345172882L59.60362215909091,123.56886434555054L59.86619318181818,128.007448554039L60.39133522727273,120.15671710968017L60.65390625,122.35483531951904L61.44161931818182,128.95882000923157L61.704190340909086,124.41704814434051L62.22933238636364,128.63688397407532L62.49190340909091,125.05681414604187L63.01704545454545,125.64514245986938L63.5421875,122.1412606716156L63.804758522727276,119.48791322708131L64.06732954545456,124.1420850276947L64.32990056818181,114.30952348709106L64.59247159090908,123.93938956260682L64.85504261363637,124.37987830638885L65.3801846590909,126.29917631149293L65.64275568181817,126.85774512290955L65.90532670454546,124.73922049999237L66.16789772727273,129.47141182422638L66.69303977272727,128.52610030174256L66.95561079545455,128.31340341567994L67.21818181818182,125.03293733596801L67.48075284090909,128.21048583984376L67.74332386363636,128.18424582481384L68.00589488636363,123.09678883552552L68.2684659090909,125.0320848941803L68.79360795454545,127.54965777397156L69.05617897727274,135.00399956703185L69.58132102272727,135.45922036170958L69.84389204545455,120.10246467590332L70.36903409090908,122.76519742012023L70.63160511363637,126.88303985595702L70.89417613636364,129.59888141155244L71.41931818181818,130.84804623126985L71.68188920454546,132.0003956079483L71.94446022727273,124.3380326986313L72.46960227272727,122.90051622390747L72.73217329545454,126.00569579601289L72.99474431818183,125.62472605705261L73.2573153409091,126.37831835746765L73.78245738636363,127.9364806652069L74.0450284090909,115.53513221740722L74.30759943181818,122.92904348373413L74.57017045454545,127.7159430027008L74.83274147727273,129.26640379428864L75.0953125,130.61280605793L75.35788352272728,130.25075039863586L75.62045454545455,128.94628236293792L75.88302556818182,128.4150634288788L76.14559659090908,133.78275854587554L76.40816761363637,129.47731983661652L76.67073863636364,121.8210717201233L77.45845170454545,130.44206449985504L78.50873579545454,124.28568348884583L78.77130681818181,124.09707863330841L79.03387784090908,122.3229911327362L79.29644886363636,128.47005014419557L79.55901988636363,131.2851758480072L79.82159090909092,129.00632886886598L80.34673295454546,118.89672374725342L80.60930397727273,134.62871840000153L80.871875,132.1606631040573L81.13444602272726,123.857462310791L81.39701704545455,130.9764779806137L82.18473011363636,116.65401692390442L82.44730113636363,133.73394148349763L82.7098721590909,122.19574098587036L82.97244318181819,133.4957557439804L83.23501420454546,122.19149565696716L83.49758522727272,126.83058936595917L83.76015625,124.33204450607299L84.02272727272727,131.80257425308227L84.28529829545454,128.07687191963197L84.54786931818182,129.3517745733261L84.8104403409091,126.55044407844544L85.07301136363637,128.71928808689117L85.59815340909091,126.1097190141678L85.86072443181818,117.2973403930664L86.12329545454544,133.54126431941987L86.6484375,128.1178650856018L86.91100852272727,134.86475615501405L87.17357954545454,129.21427824497223L87.43615056818182,127.52509310245513L87.69872159090909,134.4989784479141L87.96129261363637,126.1576920747757L88.22386363636365,127.93688578605652L88.74900568181818,130.97667210102082L89.01157670454545,133.13740525245666L89.53671875,125.31242430210114L89.79928977272728,125.1337744474411L90.06186079545455,127.09696476459503L90.5870028409091,130.19924097061158L90.84957386363637,140.06017785072328L91.11214488636362,126.69758734703065L91.37471590909091,132.3639071702957L91.63728693181818,123.47120490074157L91.89985795454545,136.1794534921646L92.16242897727273,121.15150823593139L92.425,134.44481041431428L92.68757102272728,133.07868382930755L92.95014204545456,133.63761978149415L93.21271306818183,133.33949303627014L93.47528409090908,135.67189192771912L93.73785511363636,131.46209127902983L94.2629971590909,133.5757882118225L94.52556818181819,129.62058069705964L94.78813920454546,121.76221103668213L95.05071022727273,135.35488064289092L95.57585227272727,128.8779983997345L95.83842329545455,133.5907397031784L96.10099431818182,130.9480055809021L96.62613636363636,132.19295461177825L97.1512784090909,133.34721565246582L97.67642045454546,130.48011631965636L97.93899147727274,136.1819390773773L98.20156250000001,126.66422817707063L98.46413352272727,125.32082633972168L98.72670454545454,133.08525438308715L99.25184659090908,131.7103375196457L99.51441761363637,136.32856328487395L99.77698863636364,130.64906859397888L100.03955965909091,115.26155748367309L100.30213068181818,130.1554330587387L100.56470170454546,126.74348838329315L100.82727272727274,133.9362487077713L101.08984375,135.34479904174805L102.40269886363636,129.49275662899018L102.92784090909092,136.01629528999328L103.19041193181819,139.90110883712768L103.71555397727272,130.0693111181259L103.97812499999999,130.8267816066742L104.24069602272728,136.73697996139526L104.50326704545455,134.4463296175003L104.76583806818182,143.70006630420684L105.0284090909091,132.7533169269562L105.29098011363637,120.90337171554565L105.55355113636364,130.8164130449295L105.81612215909092,134.35875177383423L106.07869318181818,134.6346306324005L106.34126420454545,135.71356451511383L107.12897727272727,133.97693803310395L107.39154829545454,133.50349946022033L107.65411931818183,129.7998382329941L107.9166903409091,142.25403385162355L108.17926136363637,122.526083278656L108.7044034090909,127.66456439495086L108.96697443181817,134.63773655891418L109.22954545454546,130.7639076948166L109.49211647727273,126.30754458904266L109.7546875,125.0608611345291L110.01725852272727,136.0593225002289L110.27982954545455,133.6098268032074L110.54240056818182,138.19141867160798L110.80497159090908,123.95131952762604L111.06754261363636,133.94891295433044L111.33011363636363,139.49678978919982L111.5926846590909,132.5447683095932L111.85525568181818,141.63408501148223L112.11782670454545,127.33574130535125L112.38039772727272,128.81256294250488L112.64296875000001,126.03407113552093L112.90553977272728,127.17664697170257L113.16811079545455,130.11442723274232L113.43068181818181,126.89594886302949L113.95582386363635,128.7412490129471L114.48096590909091,136.0596938610077L114.74353693181818,129.91373205184937L115.00610795454546,121.39502806663513L115.26867897727273,135.28698914051057L115.53125,128.24998512268067L115.79382102272726,133.3547525882721L116.05639204545454,132.32080821990968L116.31896306818182,130.6557573080063L116.58153409090909,125.47546012401581L116.84410511363636,133.3293228149414L117.10667613636363,130.76205089092255L117.36924715909092,126.97945861816406L117.63181818181819,137.9311158657074L117.89438920454546,130.25239198207856L118.15696022727273,131.57427599430085L118.41953124999999,130.71415379047394L118.68210227272726,135.66680681705475L118.94467329545454,131.74283158779144L119.20724431818182,135.253532910347L119.4698153409091,122.94760308265687L119.73238636363637,132.3619364261627L119.99495738636364,139.71892683506013L120.25752840909091,137.10996544361115L120.52009943181818,135.634228348732L120.78267045454545,128.20525302886963L121.04524147727273,136.77934041023255L121.3078125,136.09512083530427L121.57038352272727,136.05401372909546L121.83295454545454,134.3552365064621L122.09552556818181,138.58143610954284L122.3580965909091,140.5497241973877L122.62066761363637,130.57339117527007L122.88323863636364,129.88296818733215L123.14580965909092,130.96797888278962L123.67095170454544,125.28069827556611L123.93352272727272,138.05352988243104L124.45866477272727,135.79253776073455L124.72123579545455,131.0024394750595L124.98380681818182,124.57174100875854L125.24637784090909,133.24703686237336L125.50894886363638,140.02484793663024L125.77151988636363,129.03267016410828L126.0340909090909,122.37396039962768L126.55923295454545,135.72437195777894L126.82180397727272,129.82809541225433L127.34694602272728,135.4830338716507L127.60951704545455,135.22521243095397L127.87208806818182,131.5117861032486L128.1346590909091,133.58979864120482L128.39723011363637,135.6345997095108L128.9223721590909,131.40144975185393L129.18494318181817,130.49281854629515L129.44751420454546,131.19942526817323L129.71008522727274,136.2803328037262L130.2352272727273,140.1526213645935L130.49779829545454,123.44028911590577L130.7603693181818,130.64660410881044L131.0229403409091,137.52614271640778L131.28551136363635,135.16093747615815L131.81065340909092,135.29002332687378L132.07322443181818,135.65985646247864L132.33579545454546,137.3157921552658L132.8609375,124.16986112594604L133.1235085227273,134.89657502174379L133.6486505681818,131.97337489128114L134.17379261363635,127.02299644947051L134.43636363636364,133.93326094150544L134.69893465909092,128.50229523181915L135.22407670454547,129.88344926834105L135.48664772727273,135.80807161331177L135.74921874999998,134.03600549697876L136.27436079545456,138.65676326751708L136.5369318181818,131.45130915641784L136.7995028409091,138.63021519184113L137.06207386363636,132.2658046245575L137.32464488636364,132.12177150249482L137.5872159090909,131.38985738754272L137.8497869318182,132.5015132188797L138.37492897727273,137.53265841007232L138.90007102272727,142.65000150203704L139.42521306818182,140.33993911743164L139.95035511363636,138.23894863128663L140.73806818181816,124.55316874980927L141.00063920454545,142.38049485683442L141.52578125,135.15725762844085L141.78835227272728,136.61732161045074L142.05092329545454,142.17568516731262L142.31349431818182,127.64728767871857L142.57606534090908,131.27643620967865L143.10120738636365,130.31547689437866L143.3637784090909,143.2570075750351L143.62634943181817,138.16836898326875L143.88892045454546,133.52354872226715L144.1514914772727,136.38873217105865L144.4140625,136.54336173534392L144.67663352272726,126.89854838848113L144.93920454545454,129.92983560562135L145.2017755681818,137.04773297309876L145.4643465909091,140.4263775587082L145.72691761363635,126.21884422302246L145.98948863636366,130.7212687253952L146.5146306818182,129.58462200164794L146.77720170454546,132.94195976257325L147.03977272727272,134.99450454711913L147.30234375,139.09347932338716L147.56491477272726,135.2582762002945L147.82748579545455,131.1122905254364L148.0900568181818,130.7191376209259L148.3526278409091,128.01996088027954L148.61519886363635,135.2133120059967L148.87776988636364,124.97514853477479L149.1403409090909,131.90636959075928L149.40291193181815,130.54443769454957L149.66548295454547,141.59826557636262L149.92805397727273,129.88117890357972L150.190625,133.07550616264342L150.45319602272727,119.96302714347839L150.71576704545456,135.6428624868393L150.9783380681818,138.1600175857544L151.2409090909091,133.83772416114806L151.76605113636364,133.1870409965515L152.0286221590909,130.84682664871215L152.81633522727273,129.2198697566986L153.07890625000002,136.13578062057496L153.34147727272727,128.4890486240387L153.60404829545456,140.18619997501372L153.86661931818182,131.2473856687546L154.1291903409091,139.07462854385375L154.39176136363636,129.81708962917327L154.65433238636362,126.79246580600739L154.9169034090909,136.7388789653778L155.44204545454545,134.3529197216034L155.7046164772727,127.65273571014404L155.96718750000002,130.74310727119445L156.75490056818182,137.2621685028076L157.01747159090908,128.57042305469514L157.54261363636363,130.69906725883484L158.33032670454546,136.74620912075042L158.5928977272727,133.95721793174744L158.85546875,136.50384135246276L159.11803977272726,136.97663848400117L159.38061079545452,136.87916893959044L159.64318181818183,126.43904428482055L159.9057528409091,133.03498141765596L160.16832386363637,125.08602504730224L160.43089488636363,142.14899783134462L160.69346590909092,136.22503802776336L160.95603693181818,131.0598358154297L161.48117897727272,136.30791478157045L161.74375,129.79402306079865L162.00632102272726,137.45027117729188L162.26889204545452,139.42737486362458L162.53146306818184,136.9982575893402L162.7940340909091,135.30329525470734L163.05660511363638,133.46178045272828L163.58174715909092,137.23624076843262L163.84431818181818,140.5042958021164L164.10688920454547,141.47336175441743L164.36946022727273,129.62960307598115L165.94488636363639,133.96776795387268L166.47002840909093,136.39837911128998L166.7325994318182,130.22493660449982L166.99517045454544,135.3471791267395L167.25774147727273,128.731369972229L167.5203125,135.03453555107117L167.78288352272727,128.83635957241057L168.04545454545453,134.1103451728821L168.30802556818182,132.45562062263488L168.57059659090908,137.90214128494262L168.83316761363636,128.404585146904L169.09573863636365,136.33104887008668L169.3583096590909,131.61172857284546L169.6208806818182,137.9894152879715L169.88345170454545,129.0873403787613L170.14602272727274,141.6794332265854L170.40859375,139.86383349895476L170.67116477272728,139.02815780639648L171.19630681818182,132.52005593776704L171.45887784090908,139.57245454788207L171.72144886363637,143.00974881649017L172.24659090909088,134.01355504989624L172.5091619318182,134.0161208152771L172.77173295454546,141.9030050754547L173.03430397727274,134.78174436092377L173.296875,145.5012462615967L173.5594460227273,143.51335201263427L173.82201704545454,135.10100491046904L174.08458806818183,132.57692477703094L174.3471590909091,135.1302875518799L174.60973011363635,127.25537967681885L174.87230113636363,136.20238502025603L175.1348721590909,128.68294537067413L175.39744318181818,136.86661863327026L175.66001420454543,134.25252149105071L175.92258522727275,131.0108626127243L176.18515625,138.9235226869583L176.4477272727273,135.8459715127945L176.71029829545455,134.19449214935304L176.9728693181818,133.26467649936677L177.2354403409091,136.28773891925812L177.76058238636364,137.84180781841278L178.0231534090909,131.5830493927002L178.28572443181818,136.2127831220627L178.54829545454544,139.67164585590362L178.81086647727275,135.67640733718872L179.0734375,143.02074615955354L179.33600852272727,130.1058690547943L179.59857954545456,141.10197987556458L179.8611505681818,133.11894271373748L180.1237215909091,143.07512941360474L180.38629261363636,127.82535095214844L180.64886363636364,136.20938601493836L180.9114346590909,139.56713311672212L181.1740056818182,134.1498191356659L181.69914772727273,139.2833248615265L181.96171875,137.78358857631684L182.22428977272725,138.52516651153564L182.48686079545456,131.9311874628067L182.74943181818182,136.2780666589737L183.0120028409091,139.7660896539688L183.27457386363636,130.00881307125093L183.53714488636365,129.51222352981569L183.7997159090909,143.91433303356172L184.0622869318182,146.9359226703644L184.32485795454545,130.12818446159363L184.5874289772727,132.8451021194458L184.85,134.46316323280334L185.11257102272725,138.67573642730713L185.37514204545457,137.11257762908934L185.63771306818182,132.0780268907547L186.16285511363637,132.4112472295761L186.6879971590909,132.40787122249603L186.95056818181817,129.62912199497222L187.21313920454546,130.9696711063385L188.00085227272726,139.41953830718995L189.05113636363637,134.03903546333314L189.31370738636363,142.53165135383605L189.57627840909092,132.9424619436264L189.83884943181818,140.70591938495636L190.10142045454546,136.0256383895874L190.36399147727272,133.04078392982484L190.6265625,134.95329616069793L190.88913352272726,131.0873629331589L191.6768465909091,134.6024868249893L191.93941761363635,133.53363876342775L192.20198863636364,139.8631540775299L192.46455965909092,129.03164892196656L192.98970170454547,139.1799768447876L193.25227272727273,139.26744496822357L193.51484375,142.0265036344528L194.03998579545456,129.60270895957947L194.3025568181818,132.1640728712082L194.56512784090907,136.42863235473632L194.82769886363636,139.3424514055252L195.09026988636361,143.1945556640625L195.35284090909093,136.06088812351226L195.6154119318182,130.1053542137146L195.87798295454547,134.19250030517577L196.14055397727273,135.21261570453643L196.40312500000002,134.85926592350006L196.66569602272727,134.5624558210373L196.92826704545453,140.64789004325866L197.19083806818182,137.59965105056762L197.45340909090908,138.94401926994323L197.71598011363636,137.22088837623596L197.97855113636362,143.11280987262725L198.76626420454548,132.79010696411132L199.02883522727274,137.18768112659455L199.29140625,138.7129484653473L199.55397727272728,137.1706871509552L199.81654829545454,140.96604917049407L200.07911931818182,142.35817523002623L200.34169034090908,138.1904522895813L200.60426136363637,127.15226798057556L200.86683238636363,131.82072451114655L201.1294034090909,132.88235213756562L201.39197443181817,137.66035587787627L201.65454545454548,129.71529457569122L201.91711647727274,139.42532815933228L202.1796875,130.9967171430588L202.70482954545454,136.72637085914613L202.96740056818183,135.37472734451293L203.2299715909091,127.67832584381104L203.49254261363637,144.14090530872346L203.75511363636363,137.98385753631592L204.01768465909092,145.53509073257447L204.28025568181818,133.83817570209504L204.54282670454543,133.41155390739442L204.80539772727272,140.228729224205L205.06796874999998,142.05085730552673L205.3305397727273,134.3127494573593L205.59311079545455,130.2021063566208L205.85568181818184,146.16423075199128L206.1182528409091,137.6373441696167L206.38082386363638,129.62025575637819L206.64339488636364,142.90981900691986L206.9059659090909,137.82522740364075L207.16853693181818,136.72152206897735L207.43110795454544,141.71946845054626L207.69367897727273,136.05772311687468L207.95624999999998,144.52723867893218L208.21882102272727,139.18961534500122L208.74396306818184,137.72871158123016L209.26910511363636,138.9356172323227L210.0568181818182,143.4776718378067L210.31938920454544,142.9467525243759L210.58196022727273,134.2478879213333L210.84453125,146.95310232639312L211.10710227272727,135.00426120758056L211.36967329545453,141.74264051914216L211.63224431818185,129.7685299873352L211.8948153409091,141.3321982383728L212.15738636363636,140.62291181087494L212.41995738636365,144.24842269420623L212.6825284090909,139.06670758724212L212.9450994318182,131.9565665960312L213.20767045454545,135.90388691425323L213.47024147727274,132.15086424350739L213.99538352272728,139.718479514122L214.25795454545454,143.5184160232544L214.5205255681818,138.11771621704102L215.04566761363634,123.04700117111206L215.30823863636365,137.6480081319809L215.5708096590909,127.58574306964874L215.8333806818182,138.42915709018706L216.09595170454546,142.7900804758072L216.35852272727274,144.5965143442154L216.62109375,137.68788299560546L216.88366477272726,139.2890893936157L217.14623579545454,142.3218325138092L217.6713778409091,143.46494429111482L217.93394886363635,136.5468559026718L218.19651988636366,141.63538477420806L218.45909090909092,133.9021003961563L218.7216619318182,134.81639063358307L219.24680397727272,140.9849632501602L219.509375,130.05670595169067L219.77194602272726,151.96565837860106L220.03451704545455,140.0251053571701L220.2970880681818,139.20711150169373L220.5596590909091,141.62476723194123L220.82223011363635,143.93599433898925L221.08480113636364,125.33766839504243L221.3473721590909,128.7429285764694L221.60994318181815,123.05758495330811L221.87251420454547,145.6640077829361L222.13508522727273,142.37814853191375L222.39765625,141.16485800743104L222.66022727272727,139.24179575443267L223.1853693181818,139.8413957118988L223.4479403409091,134.0549364566803L223.71051136363636,134.2947890996933L223.97308238636364,129.89395287036896L224.2356534090909,137.76619369983672L224.49822443181816,139.8255242586136L224.76079545454544,136.46303808689117L225.02336647727273,144.3201544046402L225.81107954545456,145.41418747901918L226.07365056818182,126.93785777091979L226.59879261363636,144.93098802566527L226.86136363636362,135.09756138324738L227.1239346590909,134.42067196369172L227.38650568181816,143.07815937995912L227.64907670454545,149.4801111459732L227.9116477272727,131.15061242580413L228.17421875000002,138.6150273799896L228.43678977272728,131.98793392181398L228.69936079545457,135.5118860721588L228.96193181818182,141.78003401756285L229.22450284090908,129.45702159404755L229.48707386363637,134.2408953666687L229.74964488636363,145.30682623386383L230.0122159090909,136.71785488128663L230.27478693181817,141.19449090957642L230.7999289772727,147.56190612316132L231.0625,143.0560212135315L231.32507102272726,145.9529011487961L231.58764204545452,127.74934437274932L231.85021306818183,145.51708817481995L232.1127840909091,135.14122581481934L232.37535511363637,137.66474046707154L232.63792613636363,142.29676566123962L232.90049715909092,127.21175322532655L233.16306818181818,135.48857896327974L233.42563920454546,122.22085847854613L233.68821022727272,130.9309229850769L233.95078125,144.7673023223877L234.21335227272726,134.38728747367858L234.47592329545452,137.37060163021087L234.73849431818184,136.7016880273819L235.0010653409091,141.48170893192292L235.26363636363638,140.39333066940307L235.52620738636364,133.7979421377182L235.78877840909092,137.2034133195877L236.05134943181818,136.93250141143798L236.31392045454547,131.39239361286164L236.57649147727273,144.33987028598784L237.10163352272727,145.333678150177L237.36420454545453,141.27926244735718L237.6267755681818,143.47497947216033L237.88934659090907,134.16253402233124L238.15191761363639,137.67457308769227L238.41448863636364,134.40374128818513L238.67705965909093,139.0329686164856L238.9396306818182,145.67071759700775L239.46477272727273,143.6826418876648L239.72734375,140.48735246658325L239.98991477272727,138.63723306655885L240.25248579545453,139.65564358234406L240.51505681818182,137.14537131786346L240.77762784090908,151.62780447006224L241.04019886363636,135.02905375957488L241.30276988636365,134.41077182292938L241.5653409090909,139.50183691978455L241.8279119318182,122.85956525802612L242.09048295454545,135.11943368911744L242.615625,134.93899455070496L242.87819602272728,139.65590944290162L243.14076704545454,136.15601134300232L243.40333806818182,135.29962384700775L243.92848011363637,141.28572750091553L244.19105113636363,146.17690765857697L244.45362215909088,140.9238322019577L244.7161931818182,136.62837381362914L244.97876420454546,139.54445478916168L245.24133522727274,137.62557878494263L245.50390625,132.89836707115174L245.7664772727273,142.40538024902344L246.02904829545454,137.6462568283081L246.29161931818183,137.93376603126526L246.5541903409091,136.30260601043702L246.81676136363635,134.0052120923996L247.07933238636363,140.51376128196716L247.60447443181818,143.57675342559816L247.86704545454543,141.0071562767029L248.3921875,142.39398622512817L248.6547585227273,137.74861314296723L248.91732954545455,141.86602513790132L249.1799005681818,132.4304271697998L249.70504261363635,140.06844906806947L249.96761363636364,141.49546194076538L250.2301846590909,140.44173839092255L250.49275568181818,141.8011551618576L251.01789772727275,143.73973438739776L251.54303977272727,137.88408386707306L252.0681818181818,141.03037054538726L252.3307528409091,148.0501442670822L252.59332386363636,138.85045323371887L252.85589488636364,138.1238141298294L253.1184659090909,149.2372918367386L253.64360795454544,130.4229478597641L254.16875,137.00403900146483L254.43132102272725,138.81695058345795L254.69389204545456,133.52175521850586L254.95646306818182,135.41729457378386L255.2190340909091,133.6143168926239L255.74417613636365,143.60338168144227L256.0067471590909,142.7511466741562L256.2693181818182,144.15810606479644L256.53188920454545,147.08443744182586L256.79446022727274,137.4620492219925L257.05703125,140.20490305423738L257.31960227272725,140.20526597499847L257.58217329545454,141.3882652759552L257.8447443181818,140.50754520893096L258.1073153409091,142.15847175121309L258.36988636363634,139.04907217025757L258.6324573863636,132.44230649471282L258.8950284090909,134.89641466140748L259.15759943181814,144.20651800632476L259.4201704545455,134.80265028476714L259.6827414772727,137.6159740447998L259.9453125,144.7585837841034L260.2078835227273,138.78408937454225L260.4704545454546,142.70993406772612L260.7330255681818,141.009827542305L260.9955965909091,139.5455604314804L261.2581676136364,140.3574563741684L261.5207386363636,135.3911431789398L261.7833096590909,134.06523749828338L262.0458806818182,138.20875868797302L262.30845170454546,144.95703814029693L262.5710227272727,137.7307456254959L262.83359375000003,152.50324108600617L263.35873579545455,141.79450442790986L263.62130681818184,141.55804467201233L263.8838778409091,134.9824226617813L264.14644886363635,147.58144476413727L264.40901988636364,135.4726737499237L264.6715909090909,141.67513303756715L264.93416193181815,138.74178800582885L265.19673295454544,142.17893035411834L265.4593039772727,142.94680738449097L265.721875,137.18733086586L265.9844460227273,138.83817722797394L266.2470170454546,140.75803649425507L266.7721590909091,139.94641485214234L267.0347301136364,144.21473858356475L267.2973011363636,144.5344675540924L267.5598721590909,141.632937169075L268.0850142045455,141.69572246074677L268.3475852272727,137.6014445543289L268.61015625,134.01076984405518L268.8727272727273,141.09202065467835L269.1352982954545,136.57174973487855L269.39786931818185,142.85686633586883L269.92301136363636,131.70311286449433L270.18558238636365,136.62118713855745L270.71072443181816,136.76924192905426L270.97329545454545,142.35181567668914L271.23586647727274,140.83845298290254L271.49843749999997,141.86648511886597L271.76100852272725,143.00523340702057L272.02357954545454,138.5465830564499L272.5487215909091,144.1149649143219L273.0738636363636,141.398912358284L273.5990056818182,144.77906770706176L273.8615767045455,133.94650332927705L274.1241477272727,145.74687609672546L274.38671875,149.0759229183197L274.6492897727273,139.42930340766907L275.1744318181818,133.46160321235658L275.4370028409091,141.7965384721756L275.6995738636364,138.65077929496766L276.22471590909095,142.40500888824462L276.4872869318182,138.67945003509521L276.74985795454546,139.19673449993132L277.01242897727275,140.16008656024934L277.275,131.30811581611633L277.53757102272726,143.66001420021058L277.80014204545455,140.6291405439377L278.06271306818184,142.00174062252046L278.32528409090907,143.50974390506744L278.58785511363635,140.93745861053466L278.85042613636364,140.269380569458L279.11299715909087,139.74980041980743L279.3755681818182,140.74524142742158L279.63813920454544,137.6694626569748L279.9007102272727,148.20793461799622L280.16328125,134.47686982154846L280.4258522727273,140.08233711719512L280.9509943181818,148.08289153575896L281.47613636363633,134.2664517402649L281.7387073863636,141.67428903579713L282.2638494318182,145.15357661247253L282.5264204545455,137.71470115184783L282.78899147727276,142.1634598016739L283.0515625,145.97698895931245L283.3141335227273,144.90302624702454L283.57670454545456,134.38618183135986L283.83927556818185,133.60506663322448L284.1018465909091,142.6854284763336L284.36441761363636,136.15409967899322L284.62698863636365,135.70234773159027L284.8895596590909,131.44767572879792L285.15213068181816,140.93671588897706L285.67727272727274,139.8370491027832L285.93984375,136.76999309062958L286.2024147727273,142.10080111026764L286.46498579545454,146.14030330181123L286.7275568181818,143.54915878772735L286.9901278409091,142.92226803302765L287.5152698863636,140.79112136363983L288.0404119318182,136.24426016807556L288.3029829545454,142.67074284553527L288.828125,137.17668800354005L289.0906960227273,146.44973123073578" style="fill: none;" fill="none"></path></g></g></g></g></g></g><g transform="translate(41, 177)" clip-path="url(#clip_1)"><clipPath id="clip_1"><rect width="288" height="23"></rect></clipPath><g><g><line x1="0" y1="0" x2="0" y2="5" style="visibility: inherit;" fill="rgb(0, 0, 0)" stroke="rgb(204, 204, 204)" stroke-width="1px"></line><line x1="26.257102272727273" y1="0" x2="26.257102272727273" y2="5" style="visibility: inherit;" fill="rgb(0, 0, 0)" stroke="rgb(204, 204, 204)" stroke-width="1px"></line><line x1="52.51420454545455" y1="0" x2="52.51420454545455" y2="5" style="visibility: inherit;" fill="rgb(0, 0, 0)" stroke="rgb(204, 204, 204)" stroke-width="1px"></line><line x1="78.77130681818181" y1="0" x2="78.77130681818181" y2="5" style="visibility: inherit;" fill="rgb(0, 0, 0)" stroke="rgb(204, 204, 204)" stroke-width="1px"></line><line x1="105.0284090909091" y1="0" x2="105.0284090909091" y2="5" style="visibility: inherit;" fill="rgb(0, 0, 0)" stroke="rgb(204, 204, 204)" stroke-width="1px"></line><line x1="131.28551136363635" y1="0" x2="131.28551136363635" y2="5" style="visibility: inherit;" fill="rgb(0, 0, 0)" stroke="rgb(204, 204, 204)" stroke-width="1px"></line><line x1="157.54261363636363" y1="0" x2="157.54261363636363" y2="5" style="visibility: inherit;" fill="rgb(0, 0, 0)" stroke="rgb(204, 204, 204)" stroke-width="1px"></line><line x1="183.7997159090909" y1="0" x2="183.7997159090909" y2="5" style="visibility: inherit;" fill="rgb(0, 0, 0)" stroke="rgb(204, 204, 204)" stroke-width="1px"></line><line x1="210.0568181818182" y1="0" x2="210.0568181818182" y2="5" style="visibility: inherit;" fill="rgb(0, 0, 0)" stroke="rgb(204, 204, 204)" stroke-width="1px"></line><line x1="236.31392045454547" y1="0" x2="236.31392045454547" y2="5" style="visibility: inherit;" fill="rgb(0, 0, 0)" stroke="rgb(204, 204, 204)" stroke-width="1px"></line><line x1="262.5710227272727" y1="0" x2="262.5710227272727" y2="5" style="visibility: inherit;" fill="rgb(0, 0, 0)" stroke="rgb(204, 204, 204)" stroke-width="1px"></line><line x1="288.828125" y1="0" x2="288.828125" y2="5" style="visibility: inherit;" fill="rgb(0, 0, 0)" stroke="rgb(204, 204, 204)" stroke-width="1px"></line></g><g transform="translate(0, 8)"><text x="0" y="0" dx="0em" dy="0.95em" style="text-anchor: middle; visibility: hidden; font-family: Roboto, sans-serif; font-size: 12px; font-weight: 200;" fill="rgb(33, 33, 33)" stroke="none" stroke-width="1px">-100</text><text x="26.257102272727273" y="0" dx="0em" dy="0.95em" style="text-anchor: middle; visibility: inherit; font-family: Roboto, sans-serif; font-size: 12px; font-weight: 200;" fill="rgb(33, 33, 33)" stroke="none" stroke-width="1px">0</text><text x="52.51420454545455" y="0" dx="0em" dy="0.95em" style="text-anchor: middle; visibility: inherit; font-family: Roboto, sans-serif; font-size: 12px; font-weight: 200;" fill="rgb(33, 33, 33)" stroke="none" stroke-width="1px">100</text><text x="78.77130681818181" y="0" dx="0em" dy="0.95em" style="text-anchor: middle; visibility: inherit; font-family: Roboto, sans-serif; font-size: 12px; font-weight: 200;" fill="rgb(33, 33, 33)" stroke="none" stroke-width="1px">200</text><text x="105.0284090909091" y="0" dx="0em" dy="0.95em" style="text-anchor: middle; visibility: inherit; font-family: Roboto, sans-serif; font-size: 12px; font-weight: 200;" fill="rgb(33, 33, 33)" stroke="none" stroke-width="1px">300</text><text x="131.28551136363635" y="0" dx="0em" dy="0.95em" style="text-anchor: middle; visibility: inherit; font-family: Roboto, sans-serif; font-size: 12px; font-weight: 200;" fill="rgb(33, 33, 33)" stroke="none" stroke-width="1px">400</text><text x="157.54261363636363" y="0" dx="0em" dy="0.95em" style="text-anchor: middle; visibility: inherit; font-family: Roboto, sans-serif; font-size: 12px; font-weight: 200;" fill="rgb(33, 33, 33)" stroke="none" stroke-width="1px">500</text><text x="183.7997159090909" y="0" dx="0em" dy="0.95em" style="text-anchor: middle; visibility: inherit; font-family: Roboto, sans-serif; font-size: 12px; font-weight: 200;" fill="rgb(33, 33, 33)" stroke="none" stroke-width="1px">600</text><text x="210.0568181818182" y="0" dx="0em" dy="0.95em" style="text-anchor: middle; visibility: inherit; font-family: Roboto, sans-serif; font-size: 12px; font-weight: 200;" fill="rgb(33, 33, 33)" stroke="none" stroke-width="1px">700</text><text x="236.31392045454547" y="0" dx="0em" dy="0.95em" style="text-anchor: middle; visibility: inherit; font-family: Roboto, sans-serif; font-size: 12px; font-weight: 200;" fill="rgb(33, 33, 33)" stroke="none" stroke-width="1px">800</text><text x="262.5710227272727" y="0" dx="0em" dy="0.95em" style="text-anchor: middle; visibility: inherit; font-family: Roboto, sans-serif; font-size: 12px; font-weight: 200;" fill="rgb(33, 33, 33)" stroke="none" stroke-width="1px">900</text><text x="288.828125" y="0" dx="0em" dy="0.95em" style="text-anchor: middle; visibility: hidden; font-family: Roboto, sans-serif; font-size: 12px; font-weight: 200;" fill="rgb(33, 33, 33)" stroke="none" stroke-width="1px">1k</text></g><line x1="0" y1="0" x2="288.828125" y2="0" fill="rgb(0, 0, 0)" stroke="rgb(204, 204, 204)" stroke-width="1px"></line></g></g></g></g></svg>